<?xml version="1.0" standalone="no"?>
<!DOCTYPE svg PUBLIC "-//W3C//DTD SVG 1.1//EN" "http://www.w3.org/Graphics/SVG/1.1/DTD/svg11.dtd" >
<!--
2013-9-30: Created.
-->
<svg>
<metadata>
Created by iconfont
</metadata>
<defs>

<font id="iconfont" horiz-adv-x="1024" >
  <font-face
    font-family="iconfont"
    font-weight="500"
    font-stretch="normal"
    units-per-em="1024"
    ascent="896"
    descent="-128"
  />
    <missing-glyph />
    
    <glyph glyph-name="x" unicode="x" horiz-adv-x="1001"
d="M281 543q-27 -1 -53 -1h-83q-18 0 -36.5 -6t-32.5 -18.5t-23 -32t-9 -45.5v-76h912v41q0 16 -0.5 30t-0.5 18q0 13 -5 29t-17 29.5t-31.5 22.5t-49.5 9h-133v-97h-438v97zM955 310v-52q0 -23 0.5 -52t0.5 -58t-10.5 -47.5t-26 -30t-33 -16t-31.5 -4.5q-14 -1 -29.5 -0.5
t-29.5 0.5h-32l-45 128h-439l-44 -128h-29h-34q-20 0 -45 1q-25 0 -41 9.5t-25.5 23t-13.5 29.5t-4 30v167h911zM163 247q-12 0 -21 -8.5t-9 -21.5t9 -21.5t21 -8.5q13 0 22 8.5t9 21.5t-9 21.5t-22 8.5zM316 123q-8 -26 -14 -48q-5 -19 -10.5 -37t-7.5 -25t-3 -15t1 -14.5
t9.5 -10.5t21.5 -4h37h67h81h80h64h36q23 0 34 12t2 38q-5 13 -9.5 30.5t-9.5 34.5q-5 19 -11 39h-368zM336 498v228q0 11 2.5 23t10 21.5t20.5 15.5t34 6h188q31 0 51.5 -14.5t20.5 -52.5v-227h-327z" />
    

    
    <glyph glyph-name="youjiantou" unicode="&#58939;" d="M293.12359622-112.40724731l-43.11542296 44.43042527L694.54494747 390.39497072 250.00817326 848.79504311l43.11542296 44.45713383 487.62548863-502.83049768-487.62548863-502.82735549z"  horiz-adv-x="1024" />

    
    <glyph glyph-name="lianxirenmingzic-name" unicode="&#58940;" d="M24.59025815-103.40974185000005v69.05022829c0 142.16140874 89.35779735 337.12362042 231.51920612 381.80251915l8.12471268 4.0637605 4.06095214-8.12471264c8.12471268-16.24661693 20.30756908-32.49323391 32.49323385-44.6788987l8.12471273-12.18566481-16.24661701-4.06095215c-113.72912698-32.49323391-190.90406799-207.14787648-194.96502006-316.81605135h832.65807496c-4.06095218 109.66817483-93.41874954 284.32281744-207.1478765 316.81605135l-16.24661696 4.06095215 8.12190423 12.18566481c12.18566482 16.24661693 24.37132959 28.43228174 32.4932339 44.68170711l4.06376055 8.12190423 8.12190427-4.0637605c142.16140874-48.73985079 239.64391878-239.64111037 239.6439188-381.80251915v-69.05022829H24.59025815zM512 245.89954339999997c-146.22236087 0-243.70487091 105.60722272-243.70487091 243.70487093v138.10045658c0 138.1004566 97.47970165 243.70487091 243.70487091 243.70487094s243.70487091-105.60441433 243.70487091-243.70487094v-138.10045658c0-138.0976482-97.47970165-243.70487091-243.70487091-243.70487093z m174.65464261 381.80532751c0 97.47970165-73.11118045 174.65464261-174.65464261 174.65464265s-174.65464261-77.17494097-174.65464261-174.65464265v-138.10045658c0-97.47970165 73.11118045-174.65464261 174.65464261-174.65464263s174.65464261 77.17494097 174.65464261 174.65464263v138.10045658z"  horiz-adv-x="1024" />

    
    <glyph glyph-name="lajixiang" unicode="&#58941;" d="M357.0813105 75.07592785999998l-0.42072493 531.94389934a44.18647483 44.18647483 0 0 0 88.37424418 0l0.39742324-531.96461194a44.18647483 44.18647483 0 1 0-88.35223702 0.0207126z m220.93366867 0l-0.4194304 531.94389934a44.18647483 44.18647483 0 0 0 88.37424418 0l0.39742324-531.96461194a44.18647483 44.18647483 0 1 0-88.35223702 0.0207126zM929.65429349 694.0684642l-394.01473011-0.1993589c-0.6187893-0.02200715-1.19226975-0.17605721-1.81235359-0.1760572-0.61749475 0-1.1909752 0.15534459-1.78905189 0.1760572l-40.80643539-0.02200714c-0.5514733-0.02200715-1.06022685-0.15534459-1.61299469-0.15534459-0.5514733 0-1.06022685 0.13333744-1.58969299 0.15534459l-263.66378793-0.1320429 0.35340894-707.03537872h0.59548761l-0.59548761 89.8331888c0-75.05215084 17.47626667-88.37424418 88.37424419-88.37424418l-57.99531457-1.43693748 501.43292681 0.31068918-45.68943375 1.1262483c69.70441324 0 87.66613175 13.2120576 88.2629139 84.97090308l-0.33140181 533.64621715a44.18647483 44.18647483 0 1 0 88.3742442 0l0.37541609-620.09677747a88.30692819 88.30692819 0 0 0-88.3069282-87.95481378h-44.18776937v-0.06602146l-486.05510666-0.31068919v0.37671065h-44.18776937a88.37424418 88.37424418 0 0 0-88.37294965 88.37424418v46.94772496h-0.067316l-0.33140178 659.64492167-47.63253572-0.02200715a44.18647483 44.18647483 0 0 0 0 88.37294965l81.08211012 0.04530884a43.96640332 43.96640332 0 0 0 10.7161878 1.45765009c3.68943408 0 7.24682525-0.59548761 10.67087897-1.45765009l254.3845376 0.13204291-0.19935889 45.7554552a44.18647483 44.18647483 0 0 0 44.18647482 44.18647483c8.08698059 0 15.57588448-2.34181973 22.09388468-6.11928241a43.67772128 43.67772128 0 0 0 22.09388469 6.11928241 44.18647483 44.18647483 0 0 0 44.18647483-44.18647483l0.19935888-45.71014636 351.85938584 0.19806435a44.18647483 44.18647483 0 1 0 0-88.37424419zM799.17130841-12.965619999999944l-0.04530885 72.53297937-0.4634447-72.53297937h0.50875355z"  horiz-adv-x="1024" />

    
    <glyph glyph-name="sousuo" unicode="&#58942;" d="M411.59780295 82.79077602999996c90.98965561 0 178.84355263 31.37601571 244.73134261 84.71550567l285.52253253-285.52253258 72.16720564 72.16457279-285.52516543 285.52253253c53.34212284 69.02618134 84.71550563 153.74168697 84.71550567 244.73134261 0 222.77050118-185.11770262 401.61405386-407.88557098 401.61405383s-395.33990385-178.84355263-395.33990387-401.61405383c0-219.63210978 178.84355263-401.61142098 401.61405383-401.61142102z m-6.27678284 731.06090206c191.39448548 0 323.17269823-131.77821268 323.17269819-323.1726982s-131.77821268-323.17269823-323.17269819-323.17269819-323.17269823 131.77821268-323.1726982 323.17269819 131.77821268 323.17269823 323.1726982 323.1726982z"  horiz-adv-x="1024" />

    
    <glyph glyph-name="shanchu" unicode="&#58943;" d="M512-100.74456647c-266.61021367 0-484.74456647 218.13435282-484.74456647 484.74456647S245.38978633 868.74456647 512 868.74456647 996.74456647 650.61021367 996.74456647 384 778.61021367-100.74456647 512-100.74456647z m215.71350859 533.22042732H272.04996519c-41.20209457 0-75.13323131-26.66298724-75.13323127-60.59412395s33.93113669-60.59412397 75.13323127-60.59412401h455.6635434c41.19928618 0 75.13323131 26.66298724 75.13323127 60.59412401s-33.93113669 60.59412397-75.13603969 60.59412395z"  horiz-adv-x="1024" />

    
    <glyph glyph-name="lianxirendianhuac-phone" unicode="&#58944;" d="M471.38205345 799.32432568l69.05022829-121.85383965-52.80361133-32.49323392c-32.49323391-20.31037747-44.67889873-60.92832404-28.43228176-93.42155791 32.49323391-73.11118045 69.0502283-138.0976482 101.54346214-194.96221166 32.49323392-60.92832404 73.11398883-121.85383966 113.729127-186.84311584 20.31037747-32.49323391 60.92832404-40.61513814 93.42155794-20.30476067l52.80361136 32.49323389 69.0474199-121.85664811-158.40802565-93.4187495-4.06095218 0c0 4.06376055-4.06095218 4.06376055-4.0609521 8.12471266-48.74265921 64.98646778-142.16140874 199.02597225-227.45825399 349.30928525-77.17494097 134.03950449-142.16140874 284.32281744-178.71840317 365.55871055 0 4.06095217-4.06095218 12.18566482-8.12190423 16.24661697l162.46897778 93.4187495m-36.554186 64.98927618l-158.40802568-93.41874951c-32.49323391-20.31037747-44.6817071-64.98927614-24.37132963-97.48251003l0-4.06376056c36.55418601-85.29684525 105.60441433-243.7048709 186.84030741-381.80251909 85.29684525-150.28612141 178.71559474-280.26186533 231.5192061-353.37304581 20.30756909-32.49323391 64.98646777-48.73985079 97.47970165-28.43228175l158.4108341 93.42155792c32.49323391 20.30756909 44.67889873 64.98646777 24.37132962 97.47970165l-69.05022829 121.8538397c-20.31037747 32.49323391-60.92551562 44.6817071-93.42155794 24.3713296l-52.80080296-32.49323387c-36.55699441 56.86175509-73.11398883 117.7900791-109.66817485 182.77654684-36.55699441 60.92551562-69.0502283 125.91479179-97.47970168 190.90125956l52.79799464 32.49323387c32.4960423 20.31037747 44.6817071 64.98927614 24.37413799 97.48531848l-69.05022834 121.85103127c-24.37132959 36.55699441-69.0502283 44.6817071-101.54346214 28.43228173zM65.20820469 141.32089334l105.60441435-215.27258917 105.60722273 0-105.60722273 215.27258917L65.21101312 141.32089334z m211.21163708 0l105.60441427-215.27258917 105.60441437 0-105.60441437 215.27258917-105.60441427 0z"  horiz-adv-x="1024" />

    
    <glyph glyph-name="sanjiaozhaoxia" unicode="&#58945;" d="M511.98994501 126.97805462999997L-2.14779216 641.02194537H1026.1276822L511.98994501 126.97805462999997z"  horiz-adv-x="1024" />

    
    <glyph glyph-name="sanjiaozhaoshang" unicode="&#58946;" d="M512.01005499 641.02194537l514.13773717-514.04389074H-2.1276822l514.13606135 514.04389074z"  horiz-adv-x="1024" />

    
    <glyph glyph-name="yanzhengmakey" unicode="&#58947;" d="M773.76111066-100.74562577999995H274.47397229c-70.28706285 0-126.03261311 58.17067841-126.03261311 128.45774121V480.94958799h126.03261311V577.89454785c0 159.96589453 111.49110053 290.84876391 249.64472621 290.84876388 138.15131159 0 249.64241218-130.88286937 249.64241216-290.84876388v-96.94727393h126.03492716v-453.23747255c0-70.28706285-55.7455503-128.45774126-126.03492716-128.45774124z m-60.59117844 678.64248768c0 126.03492717-77.56013318 225.40732923-189.05123372 225.4073292-109.06828646 0-189.05123372-99.37240204-189.05123374-225.4073292v-96.94727391h375.67733931V577.89454785z m123.60979905-162.38870865H211.45766573v-322.35460308c0-70.28937692 55.7455503-128.45774126 126.03492716-128.45774127h375.67733933c70.28706285 0 126.03261311 58.16836436 126.03261312 128.45774127V415.50815325z m-312.66103277-353.86507044c-33.93328142 0-63.01630658 29.08765324-63.01630657 65.44143467v128.45774126c0 36.35609549 29.08302514 65.44143467 63.01630657 65.44143468 33.93096734 0 63.01630658-29.08533919 63.01630657-65.44143468v-128.45774126c0-36.35378144-29.08533919-65.44143467-63.01630657-65.44143467z"  horiz-adv-x="1024" />

    
    <glyph glyph-name="lianxirenyoujianc-email" unicode="&#58948;" d="M24.58997293 59.05998194999995V708.9400180499999h974.82005414v-649.8800361H24.58997293z m869.21528877 60.92563633L629.78841162 339.32333925l-101.5443727-64.98849727-125.9141336 73.11175091-272.13763535-227.45603799h763.61052343z m-800.16639885 60.9281046L341.40673737 384l-247.76787452 142.16064082v-345.24691794zM930.36113715 648.01191343H93.63886285v-36.55587542l438.67050535-239.64462093 402.11462992 239.64462093v36.55587542z m0-125.91413359l-239.64462087-146.2235018 239.64462087-194.96302348V522.10024816z"  horiz-adv-x="1024" />

    
    <glyph glyph-name="dangzuzhiguanxi" unicode="&#58949;" d="M982.64076175 132.99047040999994H292.36876787c-18.82754016 0-31.3782975 12.55356574-31.37829746 31.37829746V854.64076175c0 18.8247318 12.55356574 31.37548907 31.37829746 31.37548913h690.27199388c18.8247318 0 31.37548907-12.55075734 31.37548913-31.37548913v-690.27199388c0-15.68774454-12.55075734-31.3782975-31.37548913-31.37829746zM951.26246427 823.2652726599999H323.74425696v-627.5210157H951.26246427V823.26246427z m-790.67805249-251.00952962H72.73753573V-55.26246427000001h627.52101567v87.85249287c0 18.82754016 12.55356574 31.3782975 31.37548913 31.37829751s31.3782975-12.55356574 31.37829754-31.37829751v-119.22798197c0-18.8247318-12.55356574-31.37548907-31.37829754-31.37548908H41.35923825c-18.8247318 0-31.37548907 12.55075734-31.37548913 31.37548908V603.63123213c0 18.82754016 12.55075734 31.3782975 31.37548913 31.37829746h119.22798195c18.82754016 0 31.3782975-12.55356574 31.37829749-31.37829746s-15.68774454-31.37548907-31.37829749-31.37548909z"  horiz-adv-x="1024" />

    
    <glyph glyph-name="shehuibaoxian" unicode="&#58950;" d="M982.64146932-23.888964930000043H41.35853068c-18.82482571 0-31.37625225 12.55142651-31.37625227 31.37856632V760.51039861c0 18.82482571 12.55142651 31.37625225 31.37856629 31.37625225h941.28062462c18.82482571 0 31.37625225-12.55142651 31.37625227-31.37856632v-753.02311127c0-18.82482571-12.55142651-31.37625225-31.37856629-31.37625219z m-909.90668647 62.75250449h878.5304343V729.1364604400001h-878.5304343v-690.27292088zM976.36575607 503.22929564H41.35853068c-18.82482571 0-31.37625225 12.54911249-31.37625227 31.37625225s12.55142651 31.37625225 31.37856629 31.37625222h935.00491137c18.82482571 0 31.37625225-12.55142651 31.37625224-31.37856631 0-15.68696908-12.55142651-31.37393818-31.37856626-31.37393816z m-774.98810766 144.32752055c0-15.68696908-12.55142651-28.23608154-28.23839562-28.2360815s-28.23839562 12.54911249-28.23839558 28.23839558 12.54911249 28.23839562 28.23839558 28.2383956 28.23839562-12.55142651 28.23839562-28.2383956z m112.95358241 0c0-15.68696908-12.55142651-28.23608154-28.23839561-28.2360815s-28.23839562 12.54911249-28.23839559 28.23839558 12.54911249 28.23839562 28.23839559 28.2383956 28.23839562-12.55142651 28.23839561-28.2383956z m112.95358239 0c0-15.68696908-12.55142651-28.23608154-28.23839562-28.2360815s-28.23839562 12.54911249-28.23839558 28.23839558 12.54911249 28.23839562 28.23839558 28.2383956 28.23839562-12.55142651 28.23839562-28.2383956z"  horiz-adv-x="1024" />

    
    <glyph glyph-name="jiuyeyuzaijiuyeguanli" unicode="&#58951;" d="M714.0367881-112.37804762999997V144.08462161h115.82290034V350.90745222H217.65874046v-226.12800325c0-19.30313879 13.789409-35.84839573-5.51576359-35.84839574s-35.85042958 16.54525697-35.85042959 35.84839574V392.27364541h325.40564659V610.12800324h-157.1870597V880.37804763h383.31506295V612.88791889h-184.76384389v-217.85435784h330.91937637v-248.18902383H959.4658963V-112.37804762999997H714.0367881z m-27.57678418 766.62809204v182.0079959H385.87529355v-182.0079959h300.58471037z m231.64376684-554.2894978h-162.70078946v-170.97443489h162.70078946v170.97443489z m-568.07687296-107.54925496c0-19.30110493-16.54729082-5.51372975-35.8504296-5.51372974H82.53270137c-19.30313879 0-35.84839573-13.789409-35.84839577 5.51576359s16.54525697 35.84839573 35.84839577 35.84839574h231.64376683c22.06102058 0 35.85042958-16.54525697 35.8504296-35.84839574z"  horiz-adv-x="1024" />

    
    <glyph glyph-name="jinengpeixunyujianding" unicode="&#58952;" d="M512-84.80126342999995L15.62195237 108.23215815000003V816.95286771l60.66933199-24.81890241 49.63577088 60.66933198L512 698.37208556v-74.45874097 74.45874097l386.07294476 154.42917787 46.87992295-57.91145015 60.66933196 24.81890236v-711.47655749L512-84.80126342999995zM56.98611172 750.76777213v-625.98832316l421.9213405-154.42917787V596.34062806l-421.9213405 154.42917789z m910.02777656 0L545.09254778 599.09850987v-628.74620495l421.9213405 151.67129609V750.76777213z"  horiz-adv-x="1024" />

    
    <glyph glyph-name="laodongbaozhangjiancha" unicode="&#58953;" d="M985.58116073 128.08945439000001c-23.53003709 0-41.17822316 17.64818606-41.17822316 41.18085601V442.8290421l-391.21944867-235.3188012 364.74322029-235.32143402c2.94355839 20.58911156 20.58911156 64.71615888 41.18085602 64.71615889 23.53266996 0 41.18085601-17.6508189 41.18085598-41.18348893 0-26.47359547-8.82277659-52.947191-23.53003706-76.47986097-23.53266996-32.35807945-61.77260048-23.53003709-100.01253096-23.53003706h-750.08081792c-67.65708439 0-123.54520096 29.414521-123.54520091 100.00989803V445.77260048c0 35.2963721 11.76633501 64.71089313 35.29900493 91.18448864L414.93102742 860.52471915c47.06270708 47.06270708 126.4834936 47.06270708 173.54883355-2.94355842l370.63033712-320.62407161c26.47096265-26.47359547 38.23729761-58.8290421 38.23729758-91.18448864V172.21123594999995c2.94092554-23.53266996 11.76896788-44.12178154-11.76633494-44.12178156z m-123.54256809-173.54883355l-361.80492765 235.32143405-391.21944863-235.32143405h753.02437628z m-414.75211862 252.96698722l-391.21944869 235.32143404v-467.69930967l391.21944869 232.37787563z m85.30527043 617.71810608c-17.6508189 17.64818606-44.12441444 17.64818606-61.77260046 2.94092555L88.42247187 495.77623311l411.81119312-264.73595509 411.80856024 264.73595509-379.45048078 329.44948103z"  horiz-adv-x="1024" />

    
    <glyph glyph-name="qita" unicode="&#58954;" d="M853.9986038-118.01756726999997c-12.55142651 0-21.96314517 6.27694743-28.23762424 12.5514265L512 170.64302758999997 198.23902044-105.46614077000004c-9.41171867-12.55142651-25.1003847-15.68866604-37.65181125-12.5514265-15.68619774 3.13970787-25.1003847 15.68866604-25.10038468 31.37733207V854.6402352c0 18.82590561 15.68866604 31.37733212 34.51457169 31.37733207h683.9972076c18.82590561 0 34.51457168-12.55142651 34.51457169-31.37733207v-941.2804704c0-12.55142651-9.41418698-25.10285301-25.10285303-31.37733207h-9.41171866zM512 258.49560818c12.55142651 0 21.96314517-6.2744791 28.23762427-12.5489582l279.24640789-229.04563847V823.26290307H204.51596784v-806.3643599L483.76237573 245.94664997999996c6.2744791 6.2744791 15.68619774 12.54895818 28.23762427 12.5489582z"  horiz-adv-x="1024" />

    
    <glyph glyph-name="laodongguanxi" unicode="&#58955;" d="M973.81566905 531.81950092L741.43841053 299.43761430999996c-14.70812441-14.70812441-35.29857299-23.5339247-52.94785952-23.53392473-20.5904486 0-38.23973509 8.82580029-52.94554545 23.53392473l-52.94785951 52.94554545 47.06322128 47.06553535 52.94554548-52.94785949c2.94347613-2.94116204 11.76696235-2.94116204 14.70812443 0l232.37957257 232.37725853c2.94116204 2.94347613 2.94116204 11.76696235 0 14.70812444l-200.02216165 200.02216167c-2.94116204 2.94347613-11.76696235 2.94347613-14.70812442 0l-232.37725853-232.37725857c-2.94347613-2.94116204-2.94347613-11.76696235 0-14.70812442l52.94554545-52.94554544-47.06322132-47.06553542-52.94554547 52.94554547c-29.41624886 29.41624886-29.41624886 79.42294631 0 108.83688112l232.37725855 232.37725859c29.41393479 29.41624886 79.4183182 29.41624886 108.83456708 0l200.02216167-200.01984763c26.47277275-32.35741095 26.47277275-79.42063226-2.93884803-108.83688111zM317.86016246 243.54859274l355.92457813 355.92226406 44.11974524-47.06553536L364.92569786 199.42884749999996l-47.0655354 44.12205925z m152.95894038 185.31403721l-47.06322134-47.06322132-52.94785949 52.94554546c-2.94116204 2.94347613-11.76696235 2.94347613-14.70812443 0l-232.37725855-232.37725857c-2.94347613-2.94116204-2.94347613-11.76696235 0-14.70812444l200.02216168-200.02216164c2.93884802-2.94116204 11.76464829-2.94116204 14.70581036 0l232.37957262 232.37725855c2.94116204 2.94347613 2.94116204 11.76696235 0 14.70812445l-52.94554547 52.94785949 47.06322129 47.06322131 52.94554548-52.94554547c29.41624886-29.41624886 29.41624886-79.42063226 0-108.83688107l-232.37725854-232.37725858c-14.70812441-14.70812441-35.29857299-23.5339247-52.94785953-23.53392469-20.5904486 0-38.23973509 8.82580029-52.94554547 23.53392469l-200.02447573 200.02216165c-29.41393479 29.41393479-29.41393479 79.4183182 0 108.83456705l232.37957265 232.37725857c29.41393479 29.41624886 79.4183182 29.41624886 108.83456702 0l50.00669745-52.94554544z"  horiz-adv-x="1024" />

    
    <glyph glyph-name="renshirencai" unicode="&#58956;" d="M957.21757986 375.51027445c-8.52159217 34.08301705-34.08469286 74.55764718-63.90775175 83.07923937l-4.25995818 2.12830325 4.25995818 4.26163402c4.26163402 4.25995818 6.39161309 8.52159217 10.65157126 14.91152942l2.1299791 2.1299791h2.12997908c40.47463014-12.78155035 70.29768901-61.77609682 76.68930209-104.38070607H957.21757986z m-129.94380677 70.29768902c-46.86456739 0-78.81928119 31.95303797-78.81928118 76.68762628v42.60460921c0 42.60460924 31.95471379 76.68762628 78.81928118 76.68762628s78.81760537-31.95303797 78.81760538-76.68595044v-42.60628505c-2.12830326-42.60460924-34.08301705-76.68762628-78.81760538-76.68762628z m55.38615959 119.29223549c0 29.82305888-23.43312162 55.38615956-55.38615959 55.38615959s-55.38615956-23.43312162-55.38615954-55.38615959v-42.60460921c0-29.82305888 23.43312162-55.38615956 55.38615954-55.3861596s55.38615956 23.43312162 55.38615959 55.3861596v42.60460921z m-121.42389043-106.51068514l-4.25995816-2.12997908c-31.95303797-8.52159217-53.25618049-48.99622233-61.77609685-83.07923938h-23.43312161c6.39161309 42.60460924 31.95303797 89.46917664 72.42934396 104.38070609h2.12830323l2.12997909-2.12997911c2.13165492-4.25995818 6.39161309-10.65157125 10.65157128-14.91152945l2.12997906-2.12997907z m25.56310072-291.84232734v-38.34297521H237.20085703v38.34297521c0 78.81928119 51.12620141 183.20166308 129.94380679 208.76308797l4.25995814 2.12997909 2.12997911-4.25995818c4.26163402-8.52159217 10.65157125-17.04318435 17.04318434-25.5631007l6.38993727-6.38993727-8.52159218-2.1316549c-63.90607594-17.04150852-108.64066422-112.90062241-110.77231915-172.54841601h468.65070147c-2.12830326 59.64779357-53.25450465 155.50690747-117.1622564 172.54841601l-8.51991637 2.1316549 6.38993727 6.38993727c6.38993727 8.52159217 12.78155035 17.04318435 17.04318435 25.5631007l2.12830327 4.25995818 4.26163399-2.12997909c80.94758445-25.56310069 136.33374401-132.07378586 136.33374404-208.76308797zM512 317.99413579c-80.94926027 0-136.33374401 57.51446284-136.33374401 134.20376493v76.68930211c0 76.68595044 55.38615956 134.20376494 136.33374401 134.20376492 80.94926027 0 136.33374401-57.51613867 136.33374401-134.20376492v-76.68930211c2.13165492-76.68762628-55.38615956-134.20376494-136.33374401-134.20376493z m97.9907688 208.76141213c0 53.25785631-40.47463014 95.86078973-97.9907688 95.86078971s-97.9907688-42.60460924-97.9907688-95.86078971v-76.68595043c0-53.25785631 40.47463014-95.86246555 97.9907688-95.86246557s97.9907688 42.60460924 97.9907688 95.86078972v76.68762628zM245.72244919 458.59118964l-4.26163398 2.12830325 4.26163398 4.26163401c4.25995818 4.25995818 6.38993727 8.52159217 10.64989545 14.91152945l2.12997909 2.12997907h2.13165493c40.4729543-12.78155035 70.29601319-61.77609682 76.68595042-104.38070605h-23.43144576c-10.64989543 31.95303797-36.21467198 72.42934393-68.16603413 80.94926027z m-66.0377308-12.78155034c-46.86456739 0-78.81760537 31.95303797-78.81760539 76.68762625v42.60460925c0 42.60460924 31.95303797 76.68762628 78.81760539 76.68762627s78.81760537-31.95303797 78.81760534-76.68595044v-42.60628508c0-42.60460924-31.95303797-76.68762628-78.81760534-76.68762625z m55.38615955 119.2922355c0 29.82305888-23.43312162 55.38615956-55.38615955 55.38615956s-55.38615956-23.43312162-55.38615958-55.38615956v-42.60460925c0-29.82305888 23.43312162-55.38615956 55.38615958-55.38615954s55.38615956 23.43312162 55.38615955 55.38615954v42.60460925z m-121.4238904-106.51068516l-4.25995819-2.12997907c-31.95303797-8.52159217-53.25618049-48.99622233-61.77609684-83.07923938h-23.43312161c6.39161309 42.60460924 31.95303797 89.46917664 72.42934395 104.38070607h2.12830325l2.1316549-2.12997909c2.12830326-4.25995818 6.38993727-10.65157125 10.64989545-14.91152943l2.12997909-2.1299791z"  horiz-adv-x="1024" />

    
    <glyph glyph-name="laodongzhengyizhongcai" unicode="&#58957;" d="M583.58 249.21c-4.31-11.52-6.344-24.481-6.344-36.334 0-25.901 9.29-51.76 29.268-72.276l32.834-32.348 1.785-2.15c19.69-18.72 44.648-28.007 69.272-28.007 25.786 0 51.407 10.036 71.141 30.157l196.34 196.287 1.37 2.483c18.532 19.473 27.898 44.976 27.898 69.793 0 25.878-10.03 51.78-29.268 71.522l-33.62 33.436c-19.61 19.074-45.354 29.134-71.018 29.134-12.52 0-24.585-1.794-36.067-5.737l-211.43 212.06c4.975 12.252 6.798 24.127 6.798 35.98 0 25.88-9.575 51.759-28.936 71.922l-33.578 33.79c-19.278 19.053-44.942 29.07-70.686 29.07-25.701 0-51.28-10.017-71.304-29.07l-195.76-197.75-2.197-1.439c-18.199-20.096-27.071-45.29-27.071-70.457 0-25.904 9.66-51.76 29.268-71.171l33.208-33.79 1.823-1.106c19.237-18.68 44.318-28.03 69.276-28.03 12.104 0 24.293 2.15 35.733 6.827l20.977-21.56L43.77 87.38c-23.588-22.268-35.362-53.553-35.362-84.087 0-31.242 11.774-62.569 35.362-84.88 22.802-24.041 53.562-35.21 83.908-35.21 31.094 0 61.73 11.167 84.614 35.21L562.23 270.04l21.35-20.83z m261.428 189.42c7.833 7.933 17.866 11.877 28.23 11.877 10.282 0 21.06-3.944 28.899-11.876l32.793-33.081c7.586-8.285 11.44-18.282 11.44-28.737 0-9.705-3.483-19.765-9.948-26.964l-1.492-2.172L739.334 151.41c-7.92-8.283-18.575-12.252-28.939-12.252-9.657 0-19.649 3.612-27.069 10.06l-1.203 2.192-33.165 32.328c-7.835 7.913-11.068 18.743-11.068 29.136 0 10.06 2.94 20.143 10.032 27.34l1.036 1.419 196.05 196.998z m-56.384 29.157L620.06 298.423 421.567 498.676l168.148 169.697 198.909-200.586z m-423.437 59.65c-8.25-7.912-18.698-11.857-28.605-11.857-9.992 0-20.024 3.216-27.156 10.813l-1.407 1.043-32.837 33.788c-7.876 7.578-12.186 17.949-12.186 28.052 0 10.079 3.564 20.513 10.738 28.048l1.448 0.688L470.82 815.74c7.835 7.93 17.908 11.146 28.519 11.146 10.076 0 20.44-3.216 28.649-11.146l32.833-33.79c7.835-7.533 11.359-17.947 11.359-28.738 0-10.06-3.524-19.386-9.948-27.297L365.187 527.436zM169.84-38.407c-11.857-12.962-27.196-18.012-42.163-18.012-14.673 0-30.346 5.05-41.745 17.283v0.73c-11.403 10.768-17.206 26.231-17.206 41.698 0 14.381 5.803 30.536 17.206 41.678L436.2 397.266l83.577-84.087-349.937-351.585z"  horiz-adv-x="1024" />

    
    <glyph glyph-name="jianli" unicode="&#58958;" d="M906.545-127.296H245.559a31.978 31.978 0 0 0 0 63.956h651.968V832.044h-642.95v-791.84a31.978 31.978 0 0 0-63.956 0V839.463C190.62 870.673 215.244 896 245.559 896h660.986c30.315 0 54.938-25.327 54.938-56.537v-910.158a55.77 55.77 0 0 0-54.938-56.601zM222.407-127.296h-112.37c-27.054 0-47.52 24.623-47.52 57.24V631.35c0 32.618 20.402 57.24 47.52 57.24h25.198a31.978 31.978 0 0 0 0-63.955h-8.506l-0.256-687.975h95.934a31.978 31.978 0 0 0 0-63.956z m529.556 542.283H400.205c-35.24 0-63.956 28.716-63.956 63.956v95.934c0 35.24 28.716 63.956 63.956 63.956h351.758c35.304 0 63.956-28.716 63.956-63.956v-95.934c0-35.24-28.652-63.956-63.956-63.956z m0 63.956v-31.978 31.978z m-351.822 95.934v-95.934h351.758l0.064 95.934H400.141zM767.824 256.44H384.088a31.978 31.978 0 0 0 0 63.956h383.736a31.978 31.978 0 0 0 0-63.956z m0-127.912H384.088a31.978 31.978 0 0 0 0 63.956h383.736a31.978 31.978 0 0 0 0-63.956z"  horiz-adv-x="1024" />

    
    <glyph glyph-name="zhaopinhuixinxi" unicode="&#58959;" d="M955.61955555 794.73777778H68.38044445c-36.18133333 0-65.76355555-29.46844445-65.76355556-65.76355556v-591.41688889c0-36.29511111 29.46844445-65.76355555 65.76355556-65.76355555h80.3271111v-65.76355556c0-0.68266667 0.11377778-1.25155555 0.22755556-1.82044444 0.11377778-1.25155555 0.11377778-2.50311111 0.34133334-3.64088889 0.11377778-0.91022222 0.34133333-1.70666667 0.56888888-2.61688889 0.34133333-1.25155555 0.68266667-2.50311111 1.13777778-3.75466667 0.34133333-0.79644445 0.68266667-1.47911111 1.024-2.16177778l1.024-2.38933333c0.22755555-0.45511111 0.68266667-0.79644445 0.91022222-1.25155555 0.34133333-0.56888889 0.79644445-1.024 1.13777778-1.59288889 0.91022222-1.25155555 1.82044445-2.38933333 2.95822222-3.52711111 0.34133333-0.34133333 0.79644445-0.68266667 1.13777778-1.13777778 1.13777778-1.024 2.27555555-2.048 3.52711111-2.95822222 0.56888889-0.45511111 1.25155555-0.68266667 1.82044445-1.13777778 1.13777778-0.68266667 2.27555555-1.36533333 3.52711111-1.93422222l2.73066667-1.024c1.024-0.34133333 2.16177778-0.79644445 3.18577777-1.024 1.024-0.22755555 2.048-0.34133333 3.072-0.56888889 1.13777778-0.11377778 2.27555555-0.34133333 3.41333333-0.34133333 0.34133333 0 0.79644445-0.11377778 1.13777778-0.11377778 0.68266667 0 1.25155555 0.11377778 1.82044445 0.22755555 1.25155555 0.11377778 2.38933333 0.11377778 3.52711111 0.34133333 0.91022222 0.11377778 1.93422222 0.34133333 2.84444444 0.68266667l3.41333334 1.024c0.91022222 0.34133333 1.70666667 0.79644445 2.61688888 1.13777778 0.68266667 0.34133333 1.47911111 0.56888889 2.16177778 0.91022222l163.15733334 94.208h594.37511111c36.18133333 0 65.76355555 29.46844445 65.76355555 65.76355556v591.64444444c0 36.29511111-29.46844445 65.76355555-65.64977778 65.76355556z m0-657.18044445H351.11822222v-0.22755555c-5.23377778-0.22755555-10.46755555-1.47911111-15.24622222-4.20977778l-121.40088889-70.08711111v41.64266666c0 18.09066667-14.79111111 32.88177778-32.88177778 32.88177778h-113.20888888V728.97422222h887.12533333v-591.41688889zM183.40977778 487.424h657.18044444c18.09066667 0 32.88177778 14.79111111 32.88177778 32.88177778 0 18.09066667-14.79111111 32.88177778-32.88177778 32.88177777H183.40977778c-18.09066667 0-32.88177778-14.79111111-32.88177778-32.88177777 0-18.09066667 14.79111111-32.88177778 32.88177778-32.88177778z m0-164.29511111h657.18044444c18.09066667 0 32.88177778 14.79111111 32.88177778 32.88177778 0 18.09066667-14.79111111 32.88177778-32.88177778 32.88177778H183.40977778c-18.09066667 0-32.88177778-14.79111111-32.88177778-32.88177778 0-18.09066667 14.79111111-32.88177778 32.88177778-32.88177778z"  horiz-adv-x="1024" />

    
    <glyph glyph-name="qiuzhi" unicode="&#58960;" d="M560.26605037 812.11998815v19.8125037c0 29.81523911-24.39395555 54.20798103-54.20798104 54.20798104h-6.76477155c-29.83708445 0-54.20676741-24.39395555-54.20676741-54.20798104v-21.97033718c-225.99846875-32.18909867-400.33029689-226.885632-400.33029689-461.61616592 0-257.15355497 209.20790282-466.36145778 466.386944-466.36145778 34.3942637 0 68.74605037 3.76467911 102.03712474 11.20180148 16.62308503 3.71734755 27.10399052 20.1729517 23.38664296 36.7948231-3.71734755 16.646144-20.26761482 27.05544533-36.81788207 23.38664297a408.85361778 408.85361778 0 0 0-88.60588563-9.71510519c-223.16707082 0-404.74184059 181.55171082-404.74184059 404.69450904S287.97610667 753.06477037 511.14317748 753.06477037c223.14401185 0 404.6969363-181.57719703 404.6969363-404.71878162 0-29.76790755-3.2646637-59.4617837-9.6459283-88.244224-3.69186133-16.62308503 6.76477155-33.07868918 23.41212919-36.77055053 16.59881245-3.76589275 33.07747555 6.76355792 36.79482311 23.38542933 7.36430459 33.1490797 11.10471111 67.35280355 11.10471111 101.6293452 0 240.55716978-183.0869523 439.13853155-417.24101214 463.77278577z m-48.28425482-198.60563437c-17.02843733 0-30.82012445-13.81474608-30.82012444-30.82012445v-232.47318281c0-17.03207822 13.79168711-30.8468243 30.82012444-30.8468243h217.55524742c17.05392355 0 30.82133808 13.81474608 30.82133806 30.8468243 0 17.02965097-13.76741452 30.82012445-30.82133806 30.82012445H542.82861985V582.6930156999999c0 17.006592-13.79168711 30.82133808-30.8468243 30.82133808z m290.40093867-398.19309511c-89.73213392 0-162.48316208-72.72675555-162.48316207-162.45767585 0-89.70907497 72.75102815-162.43461689 162.48316207-162.4346169 89.70786133 0 162.43340325 72.72554192 162.43340326 162.4346169 0 89.7309203-72.7243283 162.45646222-162.43340326 162.45646221z m54.30507141-183.20710164c9.61922845 0 17.41315792-7.79514311 17.41315792-17.39009895 0-9.61801482-7.79392948-17.39131259-17.41315792-17.3913126h-36.12368593v-33.24374281c0-9.61922845-7.82062933-17.41437155-17.41437155-17.41437156-9.61680118 0-17.4119443 7.79514311-17.4119443 17.41437156v33.24495644h-39.24150044c-9.61801482 0-17.41437155 7.77208415-17.41437156 17.39009897 0 9.59495585 7.79635675 17.39131259 17.41558518 17.39131259h39.23907319v18.97024474h-37.70747259c-9.59495585 0-17.3876717 7.79635675-17.38767171 17.39131259 0 9.61680118 7.79150222 17.41315792 17.38888533 17.41315792h24.41822816l-26.64887941 26.673152c-6.78904415 6.78904415-6.78904415 17.79787852 0 24.58692267 6.78783052 6.80967585 17.82336475 6.80967585 24.58570903 0l32.95732622-32.93548089 32.9561126 32.93548089c6.81088948 6.80967585 17.82336475 6.80967585 24.60998163 0 6.81210311-6.78904415 6.81210311-17.79787852 0-24.58692267l-26.67193837-26.673152h24.00923497c9.61801482 0 17.39131259-7.79635675 17.39131259-17.41315792 0-9.59495585-7.77329778-17.39131259-17.39131259-17.39131259h-37.6832v-18.97145838h36.12489955z"  horiz-adv-x="1024" />

    
    <glyph glyph-name="xianchangzhaopinhui" unicode="&#58961;" d="M341.333 426.667h-0.064C223.403 426.667 128 331.2 128 213.333 128 95.488 223.424 0 341.141 0h11.2a160.107 160.107 0 0 0 108.587 141.013 106.667 106.667 0 1 0 102.187 0A160.107 160.107 0 0 0 671.637 0h11.03C800.49 0 896 95.51 896 213.333a212.395 212.395 0 0 1-20.63 91.627 21.333 21.333 0 1 0 38.529 18.347 255.061 255.061 0 0 0 24.768-109.974c0-141.376-114.624-256-256-256a21.333 21.333 0 0 0 0 42.667h0.192v-42.667H341.12c-141.27 0-255.787 114.603-255.787 256 0 141.44 114.496 256 255.936 256h11.094a160.107 160.107 0 0 0 108.544 141.014 106.667 106.667 0 1 0 102.186 0A160.107 160.107 0 0 0 671.66 469.333h11.072v-42.666h-0.064a21.333 21.333 0 0 0 0 42.666c32.085 0 63.36-5.909 92.672-17.28a21.333 21.333 0 1 0-15.446-39.786 212.736 212.736 0 0 1-77.226 14.4H341.333C223.51 426.667 128 331.157 128 213.333S223.51 0 341.333 0v-42.667c-141.376 0-256 114.624-256 256s114.624 256 256 256v-42.666zM628.864 0a117.333 117.333 0 0 1-233.728 0h233.728z m0 469.333a117.333 117.333 0 0 1-233.728 0h233.728zM512 640a64 64 0 1 1 0 128 64 64 0 0 1 0-128z m0-469.333a64 64 0 1 1 0 128 64 64 0 0 1 0-128z"  horiz-adv-x="1024" />

    
    <glyph glyph-name="guanligangwei" unicode="&#58962;" d="M109.696 271.68a32 32 0 0 0-32 32V445.696a32 32 0 0 0 64 0V303.68a32 32 0 0 0-32-32z m677.312-331.712H237.696a160.192 160.192 0 0 0-160 160V120.64a32 32 0 0 0 64 0v-20.672c0-52.928 43.072-96 96-96h549.312c52.928 0 96 43.072 96 96V291.712a32 32 0 0 0 64 0v-191.68a160.192 160.192 0 0 0-160-160.064z m128 512.704a32 32 0 0 0-32 32V667.968c0 52.928-43.072 96-96 96H237.696c-52.928 0-96-43.072-96-96v-15.232a32 32 0 0 0-64 0v15.232c0 88.192 71.808 160 160 160h549.312c88.256 0 160-71.808 160-160v-183.296a32 32 0 0 0-32-32zM913.472 276.992c-60.544 0-109.824 49.344-109.824 109.888s49.28 109.824 109.824 109.824 109.888-49.28 109.888-109.824-49.28-109.888-109.888-109.888z m0 168.512a58.624 58.624 0 1 1 0.192-117.312 58.624 58.624 0 0 1-0.192 117.312z m-727.616 71.168H34.816a32 32 0 0 0 0 64h150.976a32 32 0 0 0 0.064-64z m525.504 0H353.344a32 32 0 0 0 0 64H711.36a32 32 0 0 0 0-64z m0-174.016H353.344a32 32 0 0 0 0 64H711.36a32 32 0 0 0 0-64z m0-161.984H353.344a32 32 0 0 0 0 64H711.36a32 32 0 0 0 0-64z m-525.504 4.992H34.816a32 32 0 0 0 0 64h150.976a32 32 0 0 0 0.064-64z"  horiz-adv-x="1024" />

    
    <glyph glyph-name="rencaisousuo" unicode="&#58963;" d="M711.46666667 25.386666669999954c-8.96 0-17.06666667 5.97333333-19.30666667 15.04-12.90666667 51.09333333-38.61333333 95.14666667-74.56 127.68-8.10666667 7.36-8.74666667 19.94666667-1.38666667 28.16 7.36 8.10666667 19.94666667 8.85333333 28.16 1.38666666 41.70666667-37.76 71.57333333-88.74666667 86.4-147.41333333 2.66666667-10.66666667-3.73333333-21.44-14.4-24.21333333-1.6-0.42666667-3.2-0.64-4.90666666-0.64z m-438.18666667 0.10666666c-1.6 0-3.30666667 0.21333333-4.90666667 0.64-10.66666667 2.66666667-17.06666667 13.54666667-14.4 24.21333334 31.14666667 123.09333333 129.17333333 208.96 238.4 208.96 10.98666667 0 19.94666667-8.96 19.94666667-19.94666667 0-10.98666667-8.96-19.94666667-19.94666667-19.94666667-90.98666667 0-173.22666667-73.6-199.78666666-178.98666666-2.34666667-8.96-10.45333333-14.93333333-19.30666667-14.93333334zM492.37333333 219.09333332999995c-128.96 0-233.92 108.48-233.92 241.81333334 0 133.33333333 104.96 241.70666667 233.92 241.70666666S726.29333333 594.13333333 726.29333333 460.90666667c0-133.33333333-104.96-241.81333333-233.92-241.81333334z m0 443.73333334c-106.98666667 0-194.13333333-90.56-194.13333333-201.92s87.04-201.92 194.13333333-201.92c106.98666667 0 194.13333333 90.56 194.13333334 201.92s-87.14666667 201.92-194.13333334 201.92zM970.34666667-93.86666666999997c-5.12 0-10.24 1.92-14.08 5.86666667L796.90666667 71.25333333000003c-7.78666667 7.78666667-7.78666667 20.37333333 0 28.16 7.78666667 7.78666667 20.37333333 7.78666667 28.16 0l159.36-159.36c7.78666667-7.78666667 7.78666667-20.37333333 0-28.16-3.94666667-3.84-8.96-5.76-14.08-5.76zM492.37333333 822.18666667c230.61333333 0 418.24-187.62666667 418.24-418.24 0-230.61333333-187.62666667-418.24-418.24-418.24s-418.13333333 187.73333333-418.13333333 418.24c0 230.61333333 187.52 418.24 418.13333333 418.24m0 39.78666666c-253.01333333 0-458.02666667-205.01333333-458.02666666-458.02666666s205.01333333-458.02666667 458.02666666-458.02666667c252.90666667 0 458.02666667 205.01333333 458.02666667 458.02666667S745.38666667 861.9733333300001 492.37333333 861.9733333300001z"  horiz-adv-x="1024" />

    
    <glyph glyph-name="fabugangwei" unicode="&#58964;" d="M316.034383 250.91126c-16.969967 0-30.78894 13.821973-30.78894 30.78994 0 16.991967 13.819973 30.84194 30.78994 30.84194H692.899647c16.992967 0 30.81294-13.847973 30.812939-30.84194 0-16.967967-13.819973-30.78994-30.812939-30.78994H316.034383z m-4.589991-166.533675c-16.993967 0-30.81494 13.822973-30.81494 30.81494 0 16.967967 13.819973 30.81594 30.81594 30.81594h376.837264c16.993967 0 30.81494-13.847973 30.81494-30.81594 0-16.991967-13.819973-30.81494-30.81494-30.81494H311.445392zM144.126719-127.998c-53.214896 0-83.214837 33.603934-83.214838 84.265835V779.957227c0 48.669905 24.881951 90.866823 85.261834 90.866822h530.544963c12.982975 0 24.205953-6.936986 30.027942-18.554964 5.795989-11.631977 4.642991-24.784952-3.172994-35.168931-6.294988-8.419984-16.339968-13.453974-26.854948-13.453974H141.082724l-13.034974 0.04V-60.808131h771.298493l-0.023999 13.007974c-0.078 19.432962-0.052 33.909934-0.027 52.240898v0.789999c0 11.119978 0.027 23.812953 0.027 40.099921V534.450706c0 10.47598 4.98199 20.49396 13.322973 26.801948 6.033988 4.509991 12.954975 6.872987 20.062961 6.872986 16.231968 0 33.778934-12.863975 33.778934-33.662934V-47.828157c0-25.307951-5.506989-44.661913-16.337968-57.484887-12.668975-15.029971-34.146933-22.686956-63.832875-22.686956L144.125719-127.998zM824.39639 842.094105l7.867984 9.677981c6.530987 8.062984 15.44897 19.092963 20.92796 25.109951 9.309982 10.21598 22.107957 15.631969 37.004927 15.63197 9.335982 0 17.333966-2.085996 22.421957-3.843993 16.944967-5.819989 39.311923-25.38695 49.906902-43.611915 11.434978-19.709962 11.331978-39.969922-0.261999-55.599891-9.389982-12.744975-16.809967-22.211957-19.589962-25.67495l-7.107986-8.955982-111.169783 87.266829zM614.4318 423.870922c-6.241988 0-11.303978 1.952996-15.079971 5.809989-4.771991 4.88999-6.896987 12.285976-6.661987 23.248954 0.419999 18.711963 10.49098 77.614848 14.319972 90.098824 2.883994 9.388982 6.397988 17.872965 14.159973 28.690944 11.199978 15.55297 150.091707 199.60461 177.813652 236.347539l7.081987 9.359981 111.010783-87.212829-6.737987-9.008983c-39.235923-52.266898-167.714672-223.508563-174.953658-232.765545-6.373988-8.157984-14.923971-16.194968-22.842956-21.492958-16.548968-11.106978-69.653864-36.911928-87.146829-41.474919-4.118992-1.076998-7.711985-1.599997-10.962979-1.599997z"  horiz-adv-x="1024" />

    
    <glyph glyph-name="xiehuifuli" unicode="&#58965;" d="M1008.74330946 384.2798504V581.1884882100001c0 14.10593341-14.24291281 24.29985269-33.93554407 24.29985271l-109.90609213 0.27985041c10.89354532 13.9645353 19.13293044 30.72462887 22.62369604 51.25239264 7.82108242 47.06347394-3.770616 94.40532539-30.86308118 126.52478762-23.32184916 27.65216598-55.99953931 42.17492921-94.12547497 42.1749292-44.27086146 0-85.46778714-21.36584211-116.19094312-60.05000571-14.94253882-18.99300525-26.95401286-41.61670128-35.19192511-65.63670358-13.68615779 6.56322849-31.42278199 10.89207242-53.62817533 12.98800467-5.02699703 0.41830271-10.05399409 0.69815313-14.80261361 0.69815313-23.18192398 0-43.85108585-5.44677266-60.46978132-15.92201525-3.21091519 6.8445518-7.54123201 14.94401172-13.40630739 24.57970309-33.93554407 57.25739323-75.69217056 97.61771348-111.8606263 107.95155799-26.39431205 7.54123201-48.45978019 7.96100763-67.59123773 1.11792872-16.48024316-5.86654827-30.02647575-16.89854589-41.19839857-33.65569367-16.89854589-25.41778142-19.69263125-70.80509871-20.11093396-81.4187936-0.1384523-0.83807831-0.2798504-1.81460895-0.27985041-2.65268728 0-6.84307888 4.75009243-12.84807946 11.31184803-15.08246404 0.83955122-7.82108242 7.96100763-13.96600819 16.62016837-13.96600818 9.21738866 0 16.75862067 6.98300411 16.75862068 15.50223961v1.11645585c0.55822793 17.03847107 4.74714663 47.90155227 13.68468488 61.30785965 10.33531739 15.50076674 26.39431205 29.60522723 67.87108813 17.87507651 19.69263125-5.58522495 54.46478076-32.25938742 87.98202211-88.81862753 6.28337808-10.6136949 10.05399409-18.15492692 12.42830386-23.32184917-3.21091519-6.42477619-5.44529977-13.26638219-6.42330329-20.24938627-2.23438457-16.89854589-1.39630624-30.72462887 2.37430978-41.8965517l-0.13992522-0.13845229h-0.97800352c-9.91554179-0.41977562-30.16492806-1.39777914-49.01800809 0-0.2798504 0.2798504-0.5597008 0.41830271-0.97800355 0.41830269h-3.49076558c-9.49576617 0.83807831-18.29337922 2.37430977-25.13793101 4.88854475-24.57823021 9.07599056-63.96054693 26.81261477-95.66170642 41.19692568-20.8076142 9.35584097-37.28638447 16.75862067-45.80562003 20.10946108-32.53923783 12.56970194-71.36185373 25.41778142-121.49779056 17.59669898-88.67870233-13.82608299-92.58924354-73.03801039-92.72916873-75.55224534v-0.55970082c0-8.79761306 7.68115723-15.91906945 17.17692339-15.91906945h0.2798504c1.95453417 0 3.91054121-0.97800353 5.16692225-2.51423498 2.93253769-3.91054121 7.96100763-6.4233033 13.40630738-6.42330328 8.79908595 0 15.92201525 6.28337808 16.47877029 14.24291281h0.13992519c0 0.2798504 3.21238809 32.40078553 61.16940734 41.47677609 39.93907173 6.28632386 71.08200332-4.04899351 99.57077473-15.08246404 7.40130682-2.9310648 23.60169956-10.19244639 42.31485441-18.71168193 2.65268729-1.11792874 5.30684745-2.37430977 7.95953473-3.63069081l-170.23594826-2.09593225c-19.69115836 0-33.93554407-10.1939193-33.93554406-24.29837981v-220.79166067h74.29586432v-397.17106183c0-17.45677379 13.68615779-31.7011595 30.58323077-31.7011595h726.4725084c16.89707298 0 30.58323077 14.24438572 30.58323079 31.7011595V360.53822563000006h72.48125535l-0.1413981 23.74162477zM645.64771691 694.44689363c20.52923668 45.24739209 58.37384907 80.16093969 106.97355446 80.1609397 26.67416246 0 49.1579333-9.91554179 65.21692795-28.76862181 19.97100878-23.46177437 28.21039391-58.93354989 22.34384564-94.68370291-3.21091519-18.85308003-12.28837866-33.23739094-25.27491043-45.24739209l-170.37734634 0.2798504c4.33031682 11.59022553 5.30684745 26.25438685 3.07246287 45.1074669-1.11645582 8.79761306-3.770616 16.75714779-7.95953473 23.88007707 1.67615664 6.56322849 3.770616 12.98800468 6.00500058 19.27138274z m-121.07948785-712.366575H196.10780659V360.53822563000006h328.46189535v-378.457907z m0 414.62783563H126.4191637v166.46680514l259.1959739 0.27837751c0.2798504 0 0.41830271 0 0.55822791 0.1399252h17.73515131c0.13992521 0 0.2798504 0 0.55970082 0.13992521 7.26138162-0.41977562 14.52276322-0.69815313 21.3658421-0.69815311 4.05046642 0 7.96100763 0 11.59169844 0.13845229h87.14247088v-166.46533224z m8.51923555 210.1764929c-4.18891873-0.1384523-8.23938513-0.2798504-12.14992636-0.41830273h-12.84807946c-12.14992636 0.41830271-19.13293044 2.37430977-22.48377084 6.14492579-1.25638105 1.53623143-2.37430977 3.63069079-3.07246288 6.28485096-0.13992521 4.05046642 0.2798504 8.79761306 0.83807832 13.96453531 2.23438457 17.03699818 22.90354646 34.21539447 57.95554634 34.21539448 3.63069079 0 7.40130682-0.13992521 11.03199762-0.55970083 53.76662764-5.16692226 55.861087-22.62369604 56.69916532-30.16492804 1.25785393-10.1939193 1.11792874-17.31684859 0.27985039-22.20392044-6.56322849-6.84307888-27.65069309-6.84307888-48.17992976-6.8430789h-5.58669785c-7.54123201 0.13992521-15.08246403-0.13992521-22.48377084-0.4197756z m353.45990116-624.80432853H559.62170185V360.53822563000006h326.92566392v-378.457907z m68.01101334 414.62783563H559.62170185v166.46680514h394.93667726v-166.46680514z"  horiz-adv-x="1024" />

    
    <glyph glyph-name="xiehuihuodong" unicode="&#58966;" d="M286.986 765.819a263.37 263.37 0 0 1-59.233-40.376c-47.757-43.127-78.81-102.341-85.057-179.386-0.726-8.948 5.94-16.789 14.887-17.514 8.948-0.726 16.789 5.94 17.514 14.887 5.553 68.488 32.638 120.134 74.443 157.887 16.517 14.915 34.235 26.601 51.918 35.393 6.146 3.056 11.822 5.523 16.869 7.447 2.909 1.11 4.877 1.768 5.745 2.024 8.612 2.534 13.539 11.57 11.004 20.181-2.534 8.612-11.57 13.539-20.18 11.005-5.92-1.742-15.64-5.448-27.91-11.548z m460.416-674.653c148.867 0 268.471 139.238 268.471 309.874 0 170.637-119.604 309.874-268.47 309.874-39.925 0-78.624-10.064-113.954-29.188l15.475-28.589c30.639 16.585 64.031 25.27 98.478 25.27 129.724 0 235.963-123.68 235.963-277.367S877.126 123.674 747.402 123.674c-79.617 0-152.795 46.844-196.43 123.705l-28.27-16.049c49.173-86.615 132.824-140.164 224.7-140.164zM654.204 514.032c0 193.803-138.266 349.46-306.785 349.46-168.518 0-306.784-155.657-306.784-349.46 0-193.803 138.266-349.46 306.784-349.46 168.519 0 306.785 155.657 306.785 349.46z m-646.077 0C8.127 724.987 160.033 896 347.419 896c187.386 0 339.293-171.013 339.293-381.968S534.805 132.063 347.419 132.063 8.127 303.077 8.127 514.032zM315.906 136.734c-18.66-34.194-22.232-72.028-0.499-108.964 30.447-51.744 35.767-62.916 35.735-80.281-0.024-12.505-5.366-25.098-18.2-40.402-5.769-6.878-4.869-17.13 2.01-22.898 6.878-5.768 17.13-4.869 22.898 2.01 17.413 20.763 25.76 40.44 25.8 61.229 0.048 26.02-5.855 38.416-40.225 96.828-15.129 25.71-12.662 51.84 1.017 76.905 4.273 7.83 8.477 13.475 10.969 16.21 6.046 6.636 5.567 16.916-1.069 22.962-6.635 6.045-16.916 5.567-22.961-1.069-4.12-4.52-9.832-12.19-15.475-22.53z m402.783-38.349c-14.29-20.949-17.16-45.26-0.172-68.356 18.713-25.441 22.174-31.256 22.16-37.56-0.01-3.888-2.49-8.566-9.632-15.379-6.496-6.196-6.738-16.485-0.542-22.98 6.196-6.495 16.485-6.738 22.98-0.542 13.023 12.423 19.669 24.955 19.701 38.825 0.04 16.835-3.981 23.59-28.48 56.897-7.587 10.316-6.43 20.12 0.84 30.775 2.445 3.585 4.855 6.174 6.111 7.277 6.746 5.923 7.412 16.193 1.49 22.938-5.924 6.746-16.194 7.412-22.94 1.49-3.15-2.768-7.351-7.28-11.516-13.385z"  horiz-adv-x="1024" />

    
    <glyph glyph-name="xiehuijianjie-copy" unicode="&#58967;" d="M860.72789776 878.77252741c-13.07872016 2.13987177-25.89853266 1.78905189-39.04715789 1.78905189H180.1697103c-28.74004417 0-57.45419757-14.62828247-75.15183028-38.69374893-15.90858082-21.67445428-24.82536044-47.01504095-24.82536044-74.65731667v-766.56083753c0-28.83842907 9.76599671-54.92984795 26.73480439-77.08069231 17.39341621-22.7644555 45.9172725-36.14091947 73.3394767-36.14091947h642.32141053c13.95900619 0 27.31216845-0.3042165 41.17537881 2.30039451 21.26667472 4.00012325 42.06731568 18.47565022 55.21723543 36.39464897 15.86845013 21.59289837 24.5638637 46.60726139 24.8240659 74.13820682V765.93927712c0 51.64948797-32.39711478 104.56503435-83.07699358 112.83454483zM156.32043173-44.34588507000001c3.15867339-2.42725925 1.49778078-1.22722228 0 0zM883.51953857-22.14843732999998c1.3735051 3.73474291 0.71329058 1.81235358 0 0z m3.64024161 15.64967316c-0.15275552-0.20194797-1.0589323-6.45974597-1.46930093-8.19572179-0.66021452-2.73147575-1.48483539-5.40340275-2.38971765-8.03908267-0.13851559-0.3042165-0.26149673-0.57865861-0.35729257-0.80908642-0.90747133-2.0194797-1.95216371-3.98847242-2.98261618-5.8953273-0.6731599-1.25570213-3.17550238-4.98785597-3.93021818-6.23320177a90.80797614 90.80797614 0 0 0-4.02471949-4.54382933c-0.91912217-0.99549993-3.99753419-3.65318701-5.13931694-4.67069409-2.03113055-1.4304648-4.12051532-2.70817406-6.23579086-3.92504003-0.42719763-0.23819504-0.86475156-0.45956109-1.29194919-0.69775613-0.60325484-0.25114043-1.23369497-0.52558254-1.7152632-0.71199605-2.77807913-1.01621253-5.68820116-1.76057205-8.5879669-2.39748488-1.20780421-0.10356306-2.38971765-0.1488719-3.58587102-0.20065343-0.55017876-0.02977438-1.09776845-0.02977438-1.67513252-0.02977439h-663.60620878c-0.53593885 0-1.08482307 0.02977438-1.62076192 0.02977439a54.43533431 54.43533431 0 0 0-3.64024162 0.20065343c-0.33010725 0.07378868-0.72753051 0.17864628-1.18191345 0.28220934-2.93860187 0.60713845-5.78270245 1.55991861-8.57243243 2.57613116-1.04339785 0.56312415-2.08550115 1.11977561-3.13278262 1.70620144-2.12822092 1.20262605-4.14770062 2.60720009-6.13999502 4.06096656-0.2200715 0.17735173-0.41425225 0.32751819-0.56441868 0.48933547a76.21205712 76.21205712 0 0 0-4.43508813 4.44026626c-0.93595117 1.01750708-3.46288987 4.34058683-4.4247318 5.53544565a93.54980819 93.54980819 0 0 0-3.20009861 5.51473305c-0.70034521 1.27641474-2.49845886 5.56004187-3.10430278 6.88823813-0.86475156 2.65768707-1.59487115 5.39045737-2.25379113 8.12063858-0.39742325 1.65700898-0.70163973 3.31919613-1.0045617 5.02669211a91.73745461 91.73745461 0 0 0-0.35470349 8.23844157V767.72056178c0 2.53211685 0.12298114 5.02539757 0.30033289 7.55751443 0.09709037 0.7948465 0.26149673 1.70749598 0.35729255 2.29262728 0.41425225 2.27320921 0.95019109 4.52182219 1.53920601 6.77043516 0.37023795 1.49907532 2.11786462 6.32381947 2.47386265 7.52774005a125.17537817 125.17537817 0 0 0 2.82986066 5.56004187c0.70034521 1.2958328 3.38133396 5.2532363 3.99753418 6.36006653a98.41856663 98.41856663 0 0 0 5.04222656 5.53803473c0.86475156 0.91912217 1.82788803 1.78775735 2.80267536 2.64991984 2.37677227 1.78775735 4.91924543 3.33990875 7.46042406 4.802737 0.44014302 0.25243497 0.8660461 0.45826655 1.3191345 0.68869434a26.42152613 26.42152613 0 0 0 1.6880779 0.71458512 54.94020425 54.94020425 0 0 0 6.41832075 1.88484774c0.78190112 0.02847984 5.72703731 0.74047589 7.4448896 0.74047589H843.81604978c1.08482307 0 2.12951547-0.02071262 3.21433852-0.07249414 0.51004809-0.02977438 1.0045617-0.05954877 1.4848354-0.1048576 0.63044014-0.10226853 1.28936012-0.20712613 1.75798297-0.30292197 2.91271111-0.61749475 5.74257177-1.55991861 8.51806183-2.57613115a90.23190661 90.23190661 0 0 0 4.4920478-2.50881517c1.20909875-0.73529774 4.63185794-3.34249781 5.7568117-4.10498086a78.21859145 78.21859145 0 0 0 4.05319933-4.110159c0.96184194-0.99679447 3.54703486-4.38848475 4.48039696-5.56004189 1.41493033-2.24990752 2.69134507-4.57489825 3.92762912-6.94908144 0.63432375-1.22333867 1.21168782-2.50234249 1.77351743-3.74639376 1.1262483-3.19362592 2.01818516-6.48045858 2.82856612-9.77894211a126.06213689 126.06213689 0 0 0 0.97478731-4.97102696 88.55677408 88.55677408 0 0 0 0.35858711-8.32129201V1.7746299200000522c0.02589076-0.51004809 0.02589076-1.00067808 0.02589075-1.51460977a120.90469642 120.90469642 0 0 0-0.30162741-6.76007885z m-632.02983126 302.04166954h366.95240754c15.34545667 0 28.16656371 12.96609533 28.16656372 28.48890373 0 15.54093195-12.8198125 28.50184912-28.16656372 28.50184913H255.13124347c-15.36099113 0-28.16397463-12.96091717-28.16397465-28.50184913-0.00129454-15.52280842 12.8029835-28.48890373 28.16397465-28.48890373z m513.70903325-91.42029275H255.13124347c-15.36099113 0-28.16397463-12.96738987-28.16397465-28.48760921 0-15.54352103 12.8029835-28.47984197 28.16397465-28.47984197h513.70903323c15.37523105 0 28.19115995 12.93632095 28.19115994 28.47984197 0 15.52151387-12.81592889 28.48631467-28.19115994 28.48631467zM283.04796128 511.10553474c14.20626299 0 28.31543562 5.92251259 38.37399799 16.08593256 10.04173337 10.15565275 15.8943409 24.4214645 15.8943409 38.79083931s-5.85131298 28.63907019-15.8943409 38.797312c-10.05856237 10.15565275-24.16773499 16.05745271-38.37399799 16.05745272-14.22050291 0-28.32967554-5.90309452-38.37270345-16.05745272-10.04561698-10.15953635-15.88398459-24.42793718-15.88398458-38.797312s5.83836761-28.6364811 15.88398458-38.79083931c10.04302791-10.16212543 24.15090599-16.08593257 38.37270345-16.08593256z m220.16600747 0c14.20626299 0 28.31673015 5.92251259 38.37270344 16.08593256 10.04302791 10.15565275 15.9111699 24.4214645 15.91116991 38.79083931s-5.86814198 28.63907019-15.91116991 38.797312c-10.0559733 10.15565275-24.16644045 16.05745271-38.37270344 16.05745272s-28.33097008-5.90309452-38.35975806-16.05745272c-10.05856237-10.15953635-15.90987536-24.42793718-15.90987536-38.797312s5.85131298-28.6364811 15.90987536-38.79083931c10.028788-10.16212543 24.15349507-16.08593257 38.35975806-16.08593256z m220.16471294 0c14.1933176 0 28.33097008 5.92251259 38.37270343 16.08593256 10.03008253 10.15565275 15.88269005 24.4214645 15.88269006 38.79083931s-5.85260752 28.63907019-15.88269006 38.797312c-10.04173337 10.15565275-24.17938583 16.05745271-38.37270343 16.05745272-14.20626299 0-28.31414107-5.90309452-38.37270346-16.05745272-10.04173337-10.15953635-15.8943409-24.42793718-15.8943409-38.797312s5.85131298-28.6364811 15.8943409-38.79083931c10.05856237-10.16212543 24.16644045-16.08593257 38.37270346-16.08593256z"  horiz-adv-x="1024" />

    


  </font>
</defs>
</svg>
